{"title":"All The Presidents Men-720p MP4 AAC x264 BRRip 1976-CC","uid":7458410,"size":2153348680,"categoryP":"video","categoryS":"hd___movies","magnet":"?xt=urn:btih:38f9447f9aab315c2de0f0337d56b61219306f7d&amp;dn=All+The+Presidents+Men-720p+MP4+AAC+x264+BRRip+1976-CC&amp;tr=udp%3A%2F%2Ftracker.openbittorrent.com%3A80&amp;tr=udp%3A%2F%2Fopen.demonii.com%3A1337&amp;tr=udp%3A%2F%2Ftracker.coppersurfer.tk%3A6969&amp;tr=udp%3A%2F%2Fexodus.desync.com%3A6969","seeders":3,"leechers":1,"uploader":"Caveman44","files":-1,"time":1342733028,"description":" &lt;a href=&quot;http://www.imdb.com/title/tt0074119/&quot; rel=&quot;nofollow&quot; target=&quot;_NEW&quot;&gt;http://www.imdb.com/title/tt0074119/&lt;/a&gt;\n\nSource: All.The.Presidents.Men.1976.720p.BluRay.x264-SiNNERS\n\nSubs: Bulgarian, Danish, Dutch, English, Finnish, French, Hebrew, Indonesian, Italian, Polish, Romanian, Slovenian and Spanish.\n\nSample and Screens included.\n\nGeneral\nComplete name                    : All The Presidents Men-720p MP4 AAC x264 BRRip 1976-CC.mp4\nFormat                           : MPEG-4\nFormat profile                   : Base Media\nCodec ID                         : isom\nFile size                        : 1.98 GiB\nDuration                         : 2h 18mn\nOverall bit rate                 : 2 046 Kbps\nEncoded date                     : UTC 2012-07-05 15:42:08\n\nVideo\nID                               : 1\nFormat                           : AVC\nFormat/Info                      : Advanced Video Codec\nFormat profile                   : &lt;a class=&quot;__cf_email__&quot; href=&quot;/cdn-cgi/l/email-protection&quot; data-cfemail=&quot;b9f1d0ded1f9f58a9788&quot;&gt;[email&amp;#160;protected]&lt;/a&gt;&lt;script cf-hash='f9e31' type=&quot;text/javascript&quot;&gt;\n/* &lt;![CDATA[ */!function(){try{var t=&quot;currentScript&quot;in document?document.currentScript:function(){for(var t=document.getElementsByTagName(&quot;script&quot;),e=t.length;e--;)if(t[e].getAttribute(&quot;cf-hash&quot;))return t[e]}();if(t&amp;&amp;t.previousSibling){var e,r,n,i,c=t.previousSibling,a=c.getAttribute(&quot;data-cfemail&quot;);if(a){for(e=&quot;&quot;,r=parseInt(a.substr(0,2),16),n=2;a.length-n;n+=2)i=parseInt(a.substr(n,2),16)^r,e+=String.fromCharCode(i);e=document.createTextNode(e),c.parentNode.replaceChild(e,c)}}}catch(u){}}();/* ]]&gt; */&lt;/script&gt;\nFormat settings, CABAC           : Yes\nFormat settings, ReFrames        : 5 frames\nCodec ID                         : avc1\nCodec ID/Info                    : Advanced Video Coding\nDuration                         : 2h 18mn\nBit rate mode                    : Variable\nBit rate                         : 1 868 Kbps\nMaximum bit rate                 : 20.8 Mbps\nWidth                            : 1 280 pixels\nHeight                           : 720 pixels\nDisplay aspect ratio             : 16:9\nFrame rate mode                  : Variable\nFrame rate                       : 23.976 fps\nMinimum frame rate               : 19.048 fps\nMaximum frame rate               : 24.390 fps\nResolution                       : 24 bits\nColorimetry                      : 4:2:0\nScan type                        : Progressive\nBits/(Pixel*Frame)               : 0.085\nStream size                      : 1.80 GiB (91%)\nWriting library                  : x264 core 112\n\nAudio\nID                               : 2\nFormat                           : AAC\nFormat/Info                      : Advanced Audio Codec\nFormat version                   : Version 4\nFormat profile                   : LC\nFormat settings, SBR             : No\nCodec ID                         : 40\nDuration                         : 2h 18mn\nBit rate mode                    : Variable\nBit rate                         : 178 Kbps\nMaximum bit rate                 : 223 Kbps\nChannel(s)                       : 2 channels\nChannel positions                : L R\nSampling rate                    : 48.0 KHz\nResolution                       : 16 bits\nStream size                      : 176 MiB (9%)\nLanguage                         : English\n\nEnjoy...\n\nRequested by varuneric.\n\nWork in progress for other requests.","torrent":{"xt":"urn:btih:38f9447f9aab315c2de0f0337d56b61219306f7d","amp;dn":"All+The+Presidents+Men-720p+MP4+AAC+x264+BRRip+1976-CC","amp;tr":["udp%3A%2F%2Ftracker.openbittorrent.com%3A80","udp%3A%2F%2Fopen.demonii.com%3A1337","udp%3A%2F%2Ftracker.coppersurfer.tk%3A6969","udp%3A%2F%2Fexodus.desync.com%3A6969"],"infoHash":"38f9447f9aab315c2de0f0337d56b61219306f7d","infoHashBuffer":{"type":"Buffer","data":[56,249,68,127,154,171,49,92,45,224,240,51,125,86,182,18,25,48,111,125]},"announce":[],"urlList":[]}}